<svg width="133" height="81" viewBox="0 0 133 81" fill="none" xmlns="http://www.w3.org/2000/svg">
<g clip-path="url(#clip0_22_101)">
<rect width="133" height="81" fill="white"/>
<path d="M29.4716 8.11386H20.9899C20.1745 8.11449 19.3927 8.39474 18.8161 8.89307C18.2395 9.3914 17.9153 10.0671 17.9145 10.7718V18.7192C17.8061 18.7136 17.6976 18.7052 17.5908 18.694C15.5814 18.5113 13.671 17.8471 12.0751 16.7762C10.4791 15.7054 9.26103 14.2705 8.55814 12.6333C7.85526 10.9962 7.69554 9.22188 8.09699 7.51046C8.49844 5.79905 9.44509 4.2186 10.8302 2.94729C12.2153 1.67599 13.9839 0.764393 15.9364 0.315285C17.8889 -0.133823 19.9477 -0.102583 21.8808 0.405485C23.8138 0.913553 25.5442 1.87824 26.8769 3.19079C28.2095 4.50333 29.0914 6.11153 29.4231 7.83407C29.4409 7.92639 29.4571 8.02013 29.4716 8.11386Z" fill="#F2F2F2"/>
<path d="M129.601 7.83408H20.9899C20.0887 7.83493 19.2247 8.14472 18.5875 8.69547C17.9502 9.24623 17.5918 9.99297 17.5908 10.7719V60.2943C17.5918 61.0732 17.9502 61.82 18.5875 62.3707C19.2247 62.9215 20.0887 63.2313 20.9899 63.2321H129.601C130.502 63.2313 131.366 62.9215 132.003 62.3707C132.641 61.82 132.999 61.0732 133 60.2943V10.7719C132.999 9.99297 132.641 9.24623 132.003 8.69547C131.366 8.14472 130.502 7.83493 129.601 7.83408ZM132.676 60.2943C132.676 60.9991 132.351 61.6748 131.775 62.1731C131.198 62.6715 130.416 62.9517 129.601 62.9523H20.9899C20.1745 62.9517 19.3927 62.6715 18.8161 62.1731C18.2395 61.6748 17.9153 60.9991 17.9145 60.2943V10.7719C17.9153 10.0671 18.2395 9.39141 18.8161 8.89307C19.3927 8.39474 20.1745 8.1145 20.9899 8.11386H129.601C130.416 8.1145 131.198 8.39474 131.775 8.89307C132.351 9.39141 132.676 10.0671 132.676 10.7719V60.2943Z" fill="#3F3D56"/>
<path d="M124.259 15.8597H26.3315C26.2886 15.8597 26.2474 15.845 26.217 15.8188C26.1867 15.7925 26.1696 15.757 26.1696 15.7199C26.1696 15.6827 26.1867 15.6472 26.217 15.6209C26.2474 15.5947 26.2886 15.58 26.3315 15.58H124.259C124.302 15.58 124.343 15.5947 124.374 15.6209C124.404 15.6472 124.421 15.6827 124.421 15.7199C124.421 15.757 124.404 15.7925 124.374 15.8188C124.343 15.845 124.302 15.8597 124.259 15.8597Z" fill="#3F3D56"/>
<path d="M54.0103 57.2167C53.9673 57.2167 53.9262 57.2019 53.8958 57.1757C53.8654 57.1495 53.8484 57.1139 53.8484 57.0768V11.0516C53.8484 11.0145 53.8654 10.979 53.8958 10.9527C53.9262 10.9265 53.9673 10.9117 54.0103 10.9117C54.0532 10.9117 54.0944 10.9265 54.1247 10.9527C54.1551 10.979 54.1721 11.0145 54.1721 11.0516V57.0768C54.1721 57.1139 54.1551 57.1495 54.1247 57.1757C54.0944 57.2019 54.0532 57.2167 54.0103 57.2167Z" fill="#3F3D56"/>
<path d="M78.4518 57.2167C78.4088 57.2167 78.3677 57.2019 78.3373 57.1757C78.3069 57.1495 78.2899 57.1139 78.2899 57.0768V11.0516C78.2899 11.0145 78.3069 10.979 78.3373 10.9527C78.3677 10.9265 78.4088 10.9117 78.4518 10.9117C78.4947 10.9117 78.5358 10.9265 78.5662 10.9527C78.5966 10.979 78.6136 11.0145 78.6136 11.0516V57.0768C78.6136 57.1139 78.5966 57.1495 78.5662 57.1757C78.5358 57.2019 78.4947 57.2167 78.4518 57.2167Z" fill="#3F3D56"/>
<path d="M102.893 57.2167C102.85 57.2167 102.809 57.2019 102.779 57.1757C102.748 57.1495 102.731 57.1139 102.731 57.0768V11.0516C102.731 11.0145 102.748 10.979 102.779 10.9527C102.809 10.9265 102.85 10.9117 102.893 10.9117C102.936 10.9117 102.977 10.9265 103.008 10.9527C103.038 10.979 103.055 11.0145 103.055 11.0516V57.0768C103.055 57.1139 103.038 57.1495 103.008 57.1757C102.977 57.2019 102.936 57.2167 102.893 57.2167Z" fill="#3F3D56"/>
<path d="M38.2958 30.2993H32.3813C32.1881 30.2991 32.003 30.2327 31.8664 30.1147C31.7299 29.9967 31.6531 29.8367 31.6529 29.6698V23.6376C31.6531 23.4707 31.7299 23.3107 31.8664 23.1926C32.003 23.0746 32.1881 23.0082 32.3813 23.0081H38.2958C38.4889 23.0082 38.674 23.0746 38.8106 23.1926C38.9471 23.3107 39.0239 23.4707 39.0242 23.6376V29.6698C39.0239 29.8367 38.9471 29.9967 38.8106 30.1147C38.674 30.2327 38.4889 30.2991 38.2958 30.2993Z" fill="#6C63FF"/>
<path d="M46.7127 47.5062H40.7982C40.6051 47.5061 40.4199 47.4397 40.2834 47.3217C40.1468 47.2036 40.07 47.0436 40.0698 46.8767V40.8446C40.07 40.6776 40.1468 40.5176 40.2834 40.3996C40.4199 40.2816 40.6051 40.2152 40.7982 40.215H46.7127C46.9058 40.2152 47.091 40.2816 47.2275 40.3996C47.3641 40.5176 47.4409 40.6776 47.4411 40.8446V46.8767C47.4409 47.0436 47.3641 47.2036 47.2275 47.3217C47.091 47.4397 46.9058 47.5061 46.7127 47.5062Z" fill="#6C63FF"/>
<path d="M65.8127 33.9365H59.8982C59.7051 33.9364 59.5199 33.87 59.3834 33.752C59.2468 33.6339 59.17 33.4739 59.1698 33.307V27.2748C59.17 27.1079 59.2468 26.9479 59.3834 26.8299C59.5199 26.7119 59.7051 26.6455 59.8982 26.6453H65.8127C66.0058 26.6455 66.191 26.7119 66.3275 26.8299C66.4641 26.9479 66.5409 27.1079 66.5411 27.2748V33.307C66.5409 33.4739 66.4641 33.6339 66.3275 33.752C66.191 33.87 66.0058 33.9364 65.8127 33.9365Z" fill="#6C63FF"/>
<path d="M90.5779 27.3615H84.6634C84.4703 27.3613 84.2852 27.2949 84.1486 27.1769C84.012 27.0589 83.9352 26.8989 83.935 26.732V20.6998C83.9352 20.5329 84.012 20.3729 84.1486 20.2549C84.2852 20.1369 84.4703 20.0705 84.6634 20.0703H90.5779C90.771 20.0705 90.9562 20.1369 91.0927 20.2549C91.2293 20.3729 91.3061 20.5329 91.3063 20.6998V26.732C91.3061 26.8989 91.2293 27.0589 91.0927 27.1769C90.9562 27.2949 90.771 27.3613 90.5779 27.3615Z" fill="#6C63FF"/>
<path d="M113.401 27.3615H107.486C107.293 27.3613 107.108 27.2949 106.971 27.1769C106.835 27.0589 106.758 26.8989 106.758 26.732V20.6998C106.758 20.5329 106.835 20.3729 106.971 20.2549C107.108 20.1369 107.293 20.0705 107.486 20.0703H113.401C113.594 20.0705 113.779 20.1369 113.916 20.2549C114.052 20.3729 114.129 20.5329 114.129 20.6998V26.732C114.129 26.8989 114.052 27.0589 113.916 27.1769C113.779 27.2949 113.594 27.3613 113.401 27.3615Z" fill="#6C63FF"/>
<path d="M123.922 29.0402H118.007C117.814 29.0401 117.629 28.9737 117.493 28.8557C117.356 28.7376 117.279 28.5776 117.279 28.4107V22.3785C117.279 22.2116 117.356 22.0516 117.493 21.9336C117.629 21.8156 117.814 21.7492 118.007 21.749H123.922C124.115 21.7492 124.3 21.8156 124.437 21.9336C124.573 22.0516 124.65 22.2116 124.65 22.3785V28.4107C124.65 28.5776 124.573 28.7376 124.437 28.8557C124.3 28.9737 124.115 29.0401 123.922 29.0402Z" fill="#E6E6E6"/>
<path d="M119.228 39.8121H113.313C113.12 39.8119 112.935 39.7455 112.799 39.6275C112.662 39.5095 112.585 39.3495 112.585 39.1826V33.1504C112.585 32.9835 112.662 32.8235 112.799 32.7055C112.935 32.5874 113.12 32.5211 113.313 32.5209H119.228C119.421 32.5211 119.606 32.5874 119.743 32.7055C119.879 32.8235 119.956 32.9835 119.956 33.1504V39.1826C119.956 39.3495 119.879 39.5095 119.743 39.6275C119.606 39.7455 119.421 39.8119 119.228 39.8121Z" fill="#E6E6E6"/>
<path d="M99.1567 37.5738H93.2422C93.0491 37.5736 92.8639 37.5072 92.7274 37.3892C92.5908 37.2712 92.514 37.1112 92.5138 36.9443V30.9121C92.514 30.7452 92.5908 30.5852 92.7274 30.4672C92.8639 30.3491 93.0491 30.2828 93.2422 30.2826H99.1567C99.3498 30.2828 99.535 30.3491 99.6715 30.4672C99.8081 30.5852 99.8849 30.7452 99.8851 30.9121V36.9443C99.8849 37.1112 99.8081 37.2712 99.6715 37.3892C99.535 37.5072 99.3498 37.5736 99.1567 37.5738Z" fill="#E5872D"/>
<path d="M87.6644 39.8121H81.7499C81.5568 39.8119 81.3716 39.7455 81.2351 39.6275C81.0985 39.5095 81.0217 39.3495 81.0215 39.1826V33.1504C81.0217 32.9835 81.0985 32.8235 81.2351 32.7055C81.3716 32.5874 81.5568 32.5211 81.7499 32.5209H87.6644C87.8575 32.5211 88.0426 32.5874 88.1792 32.7055C88.3157 32.8235 88.3926 32.9835 88.3928 33.1504V39.1826C88.3926 39.3495 88.3157 39.5095 88.1792 39.6275C88.0426 39.7455 87.8575 39.8119 87.6644 39.8121Z" fill="#E6E6E6"/>
<path d="M62.8992 49.3249H56.9846C56.7915 49.3247 56.6064 49.2583 56.4698 49.1403C56.3333 49.0223 56.2565 48.8623 56.2563 48.6954V42.6632C56.2565 42.4963 56.3333 42.3363 56.4698 42.2182C56.6064 42.1002 56.7915 42.0338 56.9846 42.0337H62.8992C63.0923 42.0338 63.2774 42.1002 63.414 42.2182C63.5505 42.3363 63.6273 42.4963 63.6276 42.6632V48.6954C63.6273 48.8623 63.5505 49.0223 63.414 49.1403C63.2774 49.2583 63.0923 49.3247 62.8992 49.3249Z" fill="#E6E6E6"/>
<path d="M32.9542 41.3509H27.0397C26.8466 41.3507 26.6615 41.2843 26.5249 41.1663C26.3884 41.0483 26.3116 40.8883 26.3113 40.7214V34.6892C26.3116 34.5223 26.3884 34.3623 26.5249 34.2443C26.6615 34.1263 26.8466 34.0599 27.0397 34.0597H32.9542C33.1474 34.0599 33.3325 34.1263 33.4691 34.2443C33.6056 34.3623 33.6824 34.5223 33.6826 34.6892V40.7214C33.6824 40.8883 33.6056 41.0483 33.4691 41.1663C33.3325 41.2843 33.1474 41.3507 32.9542 41.3509Z" fill="#E5872D"/>
<path d="M49.6263 30.2993H43.7118C43.5186 30.2991 43.3335 30.2327 43.1969 30.1147C43.0604 29.9967 42.9836 29.8367 42.9834 29.6698V23.6376C42.9836 23.4707 43.0604 23.3107 43.1969 23.1926C43.3335 23.0746 43.5186 23.0082 43.7118 23.0081H49.6263C49.8194 23.0082 50.0045 23.0746 50.1411 23.1926C50.2776 23.3107 50.3545 23.4707 50.3547 23.6376V29.6698C50.3545 29.8367 50.2776 29.9967 50.1411 30.1147C50.0045 30.2327 49.8194 30.2991 49.6263 30.2993Z" fill="#E6E6E6"/>
<path d="M44.784 13.5697H35.5577C35.386 13.5697 35.2213 13.5108 35.0999 13.4058C34.9785 13.3009 34.9103 13.1585 34.9103 13.0101C34.9103 12.8617 34.9785 12.7194 35.0999 12.6145C35.2213 12.5095 35.386 12.4506 35.5577 12.4506H44.784C44.9557 12.4506 45.1204 12.5095 45.2418 12.6145C45.3632 12.7194 45.4315 12.8617 45.4315 13.0101C45.4315 13.1585 45.3632 13.3009 45.2418 13.4058C45.1204 13.5108 44.9557 13.5697 44.784 13.5697Z" fill="#CCCCCC"/>
<path d="M70.8441 13.5697H61.6179C61.4462 13.5697 61.2815 13.5108 61.1601 13.4058C61.0386 13.3009 60.9704 13.1585 60.9704 13.0101C60.9704 12.8617 61.0386 12.7194 61.1601 12.6145C61.2815 12.5095 61.4462 12.4506 61.6179 12.4506H70.8441C71.0159 12.4506 71.1805 12.5095 71.302 12.6145C71.4234 12.7194 71.4916 12.8617 71.4916 13.0101C71.4916 13.1585 71.4234 13.3009 71.302 13.4058C71.1805 13.5108 71.0159 13.5697 70.8441 13.5697Z" fill="#CCCCCC"/>
<path d="M95.2856 13.5697H86.0594C85.8877 13.5697 85.723 13.5108 85.6016 13.4058C85.4801 13.3009 85.4119 13.1585 85.4119 13.0101C85.4119 12.8617 85.4801 12.7194 85.6016 12.6145C85.723 12.5095 85.8877 12.4506 86.0594 12.4506H95.2856C95.4574 12.4506 95.622 12.5095 95.7435 12.6145C95.8649 12.7194 95.9331 12.8617 95.9331 13.0101C95.9331 13.1585 95.8649 13.3009 95.7435 13.4058C95.622 13.5108 95.4574 13.5697 95.2856 13.5697Z" fill="#CCCCCC"/>
<path d="M118.108 13.5697H108.882C108.711 13.5697 108.546 13.5108 108.424 13.4058C108.303 13.3009 108.235 13.1585 108.235 13.0101C108.235 12.8617 108.303 12.7194 108.424 12.6145C108.546 12.5095 108.711 12.4506 108.882 12.4506H118.108C118.28 12.4506 118.445 12.5095 118.566 12.6145C118.688 12.7194 118.756 12.8617 118.756 13.0101C118.756 13.1585 118.688 13.3009 118.566 13.4058C118.445 13.5108 118.28 13.5697 118.108 13.5697Z" fill="#CCCCCC"/>
<path d="M24.1193 54.5435C23.8824 54.5234 23.6536 54.4588 23.4488 54.354C23.244 54.2493 23.0683 54.107 22.9341 53.9372C22.7998 53.7674 22.7103 53.5742 22.6717 53.3713C22.6332 53.1683 22.6466 52.9606 22.711 52.7626L18.562 49.4245L20.7557 48.9436L24.8356 51.8035C25.2132 51.9191 25.5287 52.1504 25.7222 52.4536C25.9157 52.7568 25.9739 53.1108 25.8856 53.4485C25.7973 53.7862 25.5687 54.0842 25.2431 54.2861C24.9176 54.4879 24.5177 54.5795 24.1193 54.5435Z" fill="#FFB8B8"/>
<path d="M29.8484 79.2154H31.8329L32.7769 72.6001H29.8481L29.8484 79.2154Z" fill="#FFB8B8"/>
<path d="M35.66 80.8078L29.4233 80.808L29.4231 78.7255L33.2502 78.7253C33.8893 78.7253 34.5022 78.9447 34.9542 79.3352C35.4061 79.7258 35.66 80.2555 35.66 80.8078L35.66 80.8078Z" fill="#2F2E41"/>
<path d="M16.2423 77.9771L18.16 78.4183L21.0414 72.2355L18.2112 71.5845L16.2423 77.9771Z" fill="#FFB8B8"/>
<path d="M21.3844 80.8083L15.3575 79.4218L15.9773 77.4093L19.6756 78.2601C20.2932 78.4022 20.8202 78.7505 21.1406 79.2284C21.4611 79.7062 21.5488 80.2746 21.3844 80.8083Z" fill="#2F2E41"/>
<path d="M32.3665 77.9629H29.3385C29.1472 77.9635 28.9626 77.9022 28.8211 77.791C28.6795 77.6799 28.5912 77.527 28.5735 77.3624L26.7353 60.8644C26.7218 60.7434 26.6601 60.6302 26.5607 60.5442C26.4613 60.4582 26.3304 60.4047 26.1904 60.3929C26.0504 60.381 25.91 60.4116 25.7933 60.4794C25.6765 60.5472 25.5906 60.648 25.5503 60.7644L20.2131 76.1807C20.1566 76.3445 20.0292 76.4832 19.8573 76.5678C19.6854 76.6524 19.4823 76.6764 19.2905 76.6348L16.4735 76.026C16.3752 76.0048 16.2827 75.9669 16.2014 75.9147C16.12 75.8624 16.0515 75.7968 15.9996 75.7215C15.9478 75.6463 15.9136 75.5629 15.8992 75.4762C15.8848 75.3896 15.8903 75.3012 15.9155 75.2164C15.9615 75.0611 20.5142 59.6842 20.5539 59.5262C21.5855 52.9556 22.8196 51.1949 23.4826 50.2492C23.5374 50.1709 23.5879 50.0989 23.6333 50.0309C23.6901 49.9457 24.04 49.1013 24.2619 48.5529C24.2907 48.4637 24.3406 48.3807 24.4085 48.309C24.4763 48.2373 24.5606 48.1785 24.656 48.1364C27.4418 46.9051 30.7012 47.7574 31.6339 48.048C31.7885 48.0951 31.9213 48.1842 32.0123 48.302C34.8101 51.9492 33.4371 73.1319 33.1334 77.3413C33.1208 77.5097 33.0345 77.6676 32.8921 77.7831C32.7497 77.8985 32.5618 77.9628 32.3665 77.9629Z" fill="#2F2E41"/>
<path d="M24.5522 36.1745C26.7479 36.1745 28.5278 34.6362 28.5278 32.7386C28.5278 30.841 26.7479 29.3026 24.5522 29.3026C22.3566 29.3026 20.5767 30.841 20.5767 32.7386C20.5767 34.6362 22.3566 36.1745 24.5522 36.1745Z" fill="#FFB8B8"/>
<path d="M24.131 49.22L24.1024 49.1961C24.0488 49.1513 18.7519 44.6664 19.4374 40.5193C19.7306 38.7454 21.3912 37.6121 24.2395 37.2414C25.286 37.1071 26.3534 37.3038 27.2455 37.7952C28.1376 38.2866 28.7945 39.0398 29.0954 39.9164L31.9119 48.2379L24.131 49.22Z" fill="#6C63FF"/>
<path d="M21.4199 52.41L17.6455 49.1685C17.3874 48.9456 17.2001 48.6691 17.1014 48.3655C17.0028 48.0619 16.9962 47.7415 17.0823 47.435L18.9095 41.0112C18.9642 40.8187 19.0641 40.638 19.2029 40.4802C19.3417 40.3224 19.5165 40.1909 19.7165 40.0939C19.9165 39.9968 20.1374 39.9363 20.3655 39.916C20.5937 39.8957 20.8242 39.9161 21.0429 39.976C21.4596 40.0921 21.8077 40.3438 22.0135 40.6779C22.2192 41.012 22.2664 41.4021 22.145 41.7658L20.2213 47.417L23.3321 50.3039L21.4199 52.41Z" fill="#6C63FF"/>
<path d="M41.6646 41.3474C41.5648 41.5341 41.4188 41.6996 41.237 41.8323C41.0552 41.965 40.8419 42.0616 40.6122 42.1153C40.3825 42.169 40.142 42.1786 39.9076 42.1433C39.6732 42.108 39.4506 42.0287 39.2554 41.911L34.2167 44.1681L34.4394 42.2508L38.9063 39.8615C39.1568 39.5913 39.5133 39.4099 39.9083 39.3517C40.3032 39.2935 40.7091 39.3625 41.0491 39.5457C41.3891 39.7288 41.6395 40.0134 41.7529 40.3455C41.8664 40.6775 41.8349 41.034 41.6646 41.3474H41.6646Z" fill="#FFB8B8"/>
<path d="M38.7052 42.7747L33.7932 44.6092C33.4663 44.7303 33.1088 44.7767 32.7551 44.7439C32.4014 44.7111 32.0634 44.6003 31.7736 44.4219L25.5274 40.554C25.341 40.4385 25.184 40.2913 25.0661 40.1212C24.9482 39.9512 24.8719 39.7621 24.842 39.5656C24.812 39.3691 24.829 39.1694 24.892 38.9788C24.955 38.7882 25.0625 38.6108 25.208 38.4576C25.4876 38.1662 25.8874 37.9804 26.3227 37.9395C26.758 37.8985 27.1947 38.0057 27.5402 38.2382L32.8961 41.8813L37.1531 40.4579L38.7052 42.7747Z" fill="#6C63FF"/>
<path d="M25.2113 33.8396C25.7018 33.3085 26.618 33.2799 27.2917 32.9296C28.1742 32.4707 28.539 31.4452 28.2546 30.5897C27.9703 29.7343 27.1316 29.0676 26.1701 28.7487C25.2086 28.4298 24.1388 28.4259 23.1245 28.58C21.6142 28.8095 20.1274 29.4187 19.2063 30.4782C18.2852 31.5378 18.0508 33.0895 18.8856 34.2012C19.2692 34.7121 19.8615 35.1339 20.0146 35.7284C20.2157 36.5089 19.5822 37.2618 18.9036 37.8053C18.1304 38.4245 17.2433 38.9431 16.5659 39.6411C15.8885 40.3391 15.4368 41.2927 15.7459 42.1637C16.0049 42.8934 16.7585 43.431 17.5849 43.7003C18.4113 43.9695 19.3114 44.0084 20.1944 44.0234C21.0518 44.0379 21.9625 44.0198 22.6848 43.6203C23.4581 43.1925 23.8709 42.381 23.9014 41.588C23.932 40.795 23.6253 40.0181 23.2144 39.3085C22.9695 38.8856 22.6847 38.4758 22.5219 38.0243C22.3592 37.5727 22.331 37.0604 22.5916 36.6445C22.8656 36.2074 23.4199 35.9438 23.9843 35.8479C24.0136 35.8429 24.0447 35.8385 24.0771 35.8345C24.2377 35.8165 24.3924 35.7706 24.5318 35.6994C24.6713 35.6283 24.7926 35.5334 24.8884 35.4206C24.9842 35.3078 25.0526 35.1793 25.0894 35.043C25.1261 34.9067 25.1305 34.7654 25.1022 34.6276C25.0379 34.3178 25.0435 34.0213 25.2113 33.8396Z" fill="#2F2E41"/>
<path d="M78.2175 79.3619H76.233L75.289 72.7466L78.2178 72.7467L78.2175 79.3619Z" fill="#A0616A"/>
<path d="M74.8156 78.8718H78.6427V80.9544H72.4059C72.4059 80.6809 72.4683 80.4101 72.5894 80.1574C72.7105 79.9048 72.888 79.6752 73.1117 79.4818C73.3355 79.2884 73.6011 79.135 73.8935 79.0304C74.1858 78.9257 74.4992 78.8718 74.8156 78.8718Z" fill="#2F2E41"/>
<path d="M92.6161 77.4192L90.8112 78.1317L86.772 72.4535L89.4361 71.4018L92.6161 77.4192Z" fill="#A0616A"/>
<path d="M89.2862 78.1949L92.7674 76.8207L93.7685 78.7151L88.0955 80.9545C87.964 80.7057 87.8906 80.437 87.8792 80.1637C87.8679 79.8904 87.919 79.6179 88.0296 79.3616C88.1402 79.1054 88.308 78.8704 88.5237 78.6703C88.7393 78.4701 88.9984 78.3086 89.2862 78.1949Z" fill="#2F2E41"/>
<path d="M86.8372 57.0568C87.0273 56.9331 87.1837 56.7749 87.2955 56.5933C87.4072 56.4118 87.4715 56.2112 87.4839 56.0059C87.4963 55.8005 87.4564 55.5953 87.367 55.4046C87.2777 55.214 87.1411 55.0427 86.9668 54.9026L89.2996 50.3281L86.3361 50.7622L84.5752 55.0397C84.3224 55.3083 84.1923 55.6477 84.2097 55.9936C84.2271 56.3395 84.3907 56.6679 84.6695 56.9165C84.9484 57.1652 85.323 57.3168 85.7225 57.3426C86.122 57.3685 86.5186 57.2668 86.8372 57.0568Z" fill="#A0616A"/>
<path d="M78.091 77.6176H76.1953C76.0114 77.6171 75.8346 77.5567 75.6999 77.4485C75.5653 77.3403 75.4827 77.1922 75.4688 77.0337L74.435 53.1736C74.4273 53.0822 74.4428 52.9904 74.4804 52.9047C74.518 52.819 74.5769 52.7414 74.6528 52.6774C74.7287 52.6133 74.8199 52.5644 74.92 52.5341C75.0201 52.5037 75.1266 52.4925 75.2322 52.5015L86.196 53.5078C86.3737 53.5228 86.5389 53.5937 86.6601 53.707C86.7813 53.8203 86.8502 53.9681 86.8536 54.1224L87.0833 64.6474C87.0846 64.7045 87.0974 64.761 87.1212 64.8143L91.6186 74.8941C91.6534 74.9719 91.6698 75.055 91.6671 75.1384C91.6644 75.2219 91.6424 75.304 91.6026 75.38C91.5628 75.4561 91.5059 75.5245 91.4352 75.5813C91.3645 75.6382 91.2814 75.6823 91.1908 75.7112L89.2697 76.3229C89.1029 76.376 88.9193 76.3745 88.7536 76.3188C88.5879 76.263 88.4516 76.1568 88.3702 76.0202L82.8453 66.7355C82.8152 66.6851 82.7932 66.6313 82.7799 66.5757L81.8361 62.6455C81.8087 62.5316 81.7353 62.4298 81.6289 62.3584C81.5226 62.287 81.3903 62.2507 81.2558 62.2559C81.1213 62.2612 80.9933 62.3077 80.8949 62.3871C80.7964 62.4665 80.7339 62.5736 80.7186 62.6893L78.8147 77.0597C78.7944 77.2133 78.7094 77.355 78.5759 77.4579C78.4425 77.5608 78.2699 77.6177 78.091 77.6176Z" fill="#6C63FF"/>
<path d="M79.035 34.5173C81.2306 34.5173 83.0105 32.979 83.0105 31.0814C83.0105 29.1837 81.2306 27.6454 79.035 27.6454C76.8393 27.6454 75.0594 29.1837 75.0594 31.0814C75.0594 32.979 76.8393 34.5173 79.035 34.5173Z" fill="#A0616A"/>
<path d="M81.7613 55.3553C79.0654 55.3296 76.4336 54.6406 74.1743 53.369L74.1356 53.346L74.1396 53.3054L75.6603 37.9988C75.7127 37.4795 75.981 36.9942 76.4154 36.6325C76.8498 36.2709 77.421 36.0575 78.0234 36.0317C79.9942 35.9534 82.6415 36.0521 84.0586 36.9643C86.2002 38.3429 87.2324 40.4188 86.8905 42.6597C86.1815 47.3068 86.9847 53.5755 87.0786 54.275L87.0854 54.3254L87.032 54.3466C85.3811 55.0104 83.5823 55.3547 81.7613 55.3553Z" fill="#E5872D"/>
<path d="M87.0603 54.301C86.9482 54.3008 86.8374 54.2805 86.7349 54.2415C86.6323 54.2024 86.5403 54.1454 86.4645 54.074L85.5949 53.2541C85.5009 53.165 85.435 53.0565 85.4036 52.939C85.3722 52.8215 85.3762 52.699 85.4153 52.5833L87.3983 46.7828L84.3812 41.3068C84.2403 41.0505 84.2058 40.76 84.2834 40.4843C84.3519 40.2423 84.5037 40.0239 84.7187 39.8579C84.9337 39.6919 85.2019 39.5862 85.4878 39.5546C85.7738 39.523 86.0641 39.5671 86.3205 39.681C86.5769 39.795 86.7873 39.9734 86.924 40.1928L91.0183 45.9343C91.1846 46.1672 91.2822 46.4319 91.3025 46.705C91.3228 46.9782 91.2653 47.2515 91.1348 47.5009L87.7988 53.8891C87.7439 53.9947 87.6594 54.0869 87.5529 54.1572C87.4465 54.2275 87.3215 54.2739 87.1892 54.292C87.1466 54.2979 87.1034 54.3009 87.0603 54.301Z" fill="#E5872D"/>
<path d="M59.038 43.2206C59.2289 43.3434 59.4487 43.4284 59.6818 43.4698C59.9149 43.5112 60.1556 43.5079 60.3871 43.4602C60.6185 43.4125 60.8351 43.3215 61.0214 43.1936C61.2078 43.0658 61.3595 42.9041 61.4657 42.7201L67.2019 43.3631L65.8836 41.0285L60.6386 40.7758C60.2691 40.642 59.8556 40.63 59.4766 40.7421C59.0975 40.8541 58.7792 41.0825 58.5819 41.3838C58.3846 41.6852 58.3221 42.0386 58.4061 42.3771C58.4902 42.7156 58.715 43.0158 59.038 43.2206V43.2206Z" fill="#A0616A"/>
<path d="M71.6815 44.4957C71.5816 44.4957 71.4818 44.4897 71.3829 44.4778L62.3588 43.3961C62.2113 43.3786 62.0712 43.3296 61.9511 43.2537C61.831 43.1777 61.7346 43.0771 61.6708 42.9609C61.6501 42.9234 61.6329 42.8846 61.6193 42.8449H61.6193C61.5844 42.7416 61.5746 42.6332 61.5906 42.5265C61.6066 42.4197 61.6481 42.3171 61.7123 42.2249L62.4591 41.1549C62.5394 41.0405 62.6524 40.9459 62.7872 40.8801C62.922 40.8143 63.0741 40.7795 63.2289 40.7791H63.2301L71.0961 40.7869L76.9708 36.238C77.2441 36.0268 77.5931 35.9033 77.9593 35.8883C78.2808 35.8754 78.5993 35.9471 78.8727 36.0938C79.1461 36.2405 79.3617 36.4554 79.4909 36.7102C79.6202 36.965 79.657 37.2476 79.5966 37.5208C79.5362 37.794 79.3814 38.045 79.1527 38.2407L73.2907 43.8754C73.0879 44.0706 72.8397 44.2267 72.5625 44.3335C72.2852 44.4404 71.9851 44.4956 71.6815 44.4957Z" fill="#E5872D"/>
<path d="M79.4869 34.1381C79.8502 33.4114 80.1577 32.4436 79.4608 31.9298C79.0566 31.6318 78.4744 31.6312 77.9449 31.5941C76.4529 31.4896 74.9171 30.8964 74.1879 29.7666C73.4587 28.6368 73.8659 26.9569 75.2417 26.4472C76.169 26.1036 77.2322 26.3377 78.2029 26.5756L81.1174 27.2899C81.9834 27.5021 82.8926 27.7361 83.516 28.2973C84.5103 29.1922 84.436 30.7051 83.6463 31.7412C82.8566 32.7773 81.6673 33.8579 80.3058 34.2513L79.4869 34.1381Z" fill="#2F2E41"/>
<path d="M119.696 81H0.192861C0.167504 81.0001 0.142383 80.9958 0.118936 80.9875C0.0954882 80.9791 0.0741771 80.9669 0.0562213 80.9514C0.0382654 80.9359 0.0240186 80.9175 0.014298 80.8973C0.00457746 80.8771 -0.000427246 80.8554 -0.000427246 80.8334C-0.000427246 80.8115 0.00457746 80.7898 0.014298 80.7696C0.0240186 80.7493 0.0382654 80.731 0.0562213 80.7155C0.0741771 80.7 0.0954882 80.6878 0.118936 80.6794C0.142383 80.6711 0.167504 80.6668 0.192861 80.6669H119.696C119.722 80.6668 119.747 80.6711 119.77 80.6794C119.794 80.6878 119.815 80.7 119.833 80.7155C119.851 80.731 119.865 80.7493 119.875 80.7696C119.885 80.7898 119.89 80.8115 119.89 80.8334C119.89 80.8554 119.885 80.8771 119.875 80.8973C119.865 80.9175 119.851 80.9359 119.833 80.9514C119.815 80.9669 119.794 80.9791 119.77 80.9875C119.747 80.9958 119.722 81.0001 119.696 81Z" fill="#3F3D56"/>
</g>
<defs>
<clipPath id="clip0_22_101">
<rect width="133" height="81" fill="white"/>
</clipPath>
</defs>
</svg>

